<svg width="40" height="40" viewBox="0 0 40 40" fill="none" xmlns="http://www.w3.org/2000/svg">
<path d="M5.83398 12.5C7.2147 12.5 8.33398 11.3807 8.33398 10C8.33398 8.61929 7.2147 7.5 5.83398 7.5C4.45327 7.5 3.33398 8.61929 3.33398 10C3.33398 11.3807 4.45327 12.5 5.83398 12.5Z" fill="black"/>
<path d="M13.334 8.33333C12.4135 8.33333 11.6673 9.07953 11.6673 10C11.6673 10.9205 12.4135 11.6667 13.334 11.6667H35.0007C35.9211 11.6667 36.6673 10.9205 36.6673 10C36.6673 9.07953 35.9211 8.33333 35.0007 8.33333H13.334Z" fill="black"/>
<path d="M13.334 18.3333C12.4135 18.3333 11.6673 19.0795 11.6673 20C11.6673 20.9205 12.4135 21.6667 13.334 21.6667H35.0007C35.9211 21.6667 36.6673 20.9205 36.6673 20C36.6673 19.0795 35.9211 18.3333 35.0007 18.3333H13.334Z" fill="black"/>
<path d="M11.6673 30C11.6673 29.0795 12.4135 28.3333 13.334 28.3333H35.0007C35.9211 28.3333 36.6673 29.0795 36.6673 30C36.6673 30.9205 35.9211 31.6667 35.0007 31.6667H13.334C12.4135 31.6667 11.6673 30.9205 11.6673 30Z" fill="black"/>
<path d="M8.33398 20C8.33398 21.3807 7.2147 22.5 5.83398 22.5C4.45327 22.5 3.33398 21.3807 3.33398 20C3.33398 18.6193 4.45327 17.5 5.83398 17.5C7.2147 17.5 8.33398 18.6193 8.33398 20Z" fill="black"/>
<path d="M5.83398 32.5C7.2147 32.5 8.33398 31.3807 8.33398 30C8.33398 28.6193 7.2147 27.5 5.83398 27.5C4.45327 27.5 3.33398 28.6193 3.33398 30C3.33398 31.3807 4.45327 32.5 5.83398 32.5Z" fill="black"/>
</svg>
