<svg width="154" height="52" viewBox="0 0 154 52" fill="none" xmlns="http://www.w3.org/2000/svg">
<path d="M74.7231 15.07H78.1444L83.8656 30.825L89.5725 15.07H93.0081L85.2313 36H82.4856L74.7231 15.07ZM72.9981 15.07H76.3475L76.9513 29.5456V36H72.9981V15.07ZM91.3694 15.07H94.7331V36H90.78V29.5456L91.3694 15.07ZM107.728 32.3056V20.4462H111.552V36H107.958L107.728 32.3056ZM108.217 29.0856L109.396 29.0569C109.396 30.1015 109.281 31.0646 109.051 31.9462C108.821 32.8279 108.461 33.5946 107.973 34.2462C107.493 34.8883 106.885 35.3915 106.147 35.7556C105.409 36.1102 104.537 36.2875 103.531 36.2875C102.764 36.2875 102.064 36.1821 101.432 35.9712C100.799 35.7508 100.253 35.4106 99.7931 34.9506C99.3427 34.481 98.9929 33.8821 98.7438 33.1537C98.4946 32.4158 98.37 31.5294 98.37 30.4944V20.4462H102.165V30.5231C102.165 31.0406 102.223 31.4719 102.338 31.8169C102.462 32.1619 102.63 32.4446 102.841 32.665C103.061 32.8758 103.315 33.0292 103.603 33.125C103.9 33.2112 104.216 33.2544 104.551 33.2544C105.471 33.2544 106.195 33.0723 106.722 32.7081C107.259 32.3344 107.642 31.836 107.872 31.2131C108.102 30.5806 108.217 29.8715 108.217 29.0856ZM118.711 23.6231V36H114.916V20.4462H118.509L118.711 23.6231ZM123.44 20.3456L123.383 23.8819C123.172 23.8435 122.932 23.8148 122.664 23.7956C122.405 23.7765 122.161 23.7669 121.931 23.7669C121.346 23.7669 120.833 23.8483 120.393 24.0112C119.952 24.1646 119.583 24.3898 119.286 24.6869C118.998 24.984 118.778 25.3481 118.624 25.7794C118.471 26.201 118.385 26.6802 118.366 27.2169L117.546 27.1162C117.546 26.1292 117.647 25.214 117.848 24.3706C118.049 23.5273 118.342 22.7894 118.725 22.1569C119.108 21.5244 119.588 21.0356 120.163 20.6906C120.747 20.336 121.418 20.1587 122.175 20.1587C122.386 20.1587 122.611 20.1779 122.851 20.2162C123.1 20.245 123.296 20.2881 123.44 20.3456ZM133.603 32.6937V25.5206C133.603 24.9935 133.512 24.5383 133.33 24.155C133.148 23.7717 132.87 23.4746 132.496 23.2637C132.123 23.0529 131.648 22.9475 131.073 22.9475C130.565 22.9475 130.12 23.0337 129.736 23.2062C129.363 23.3787 129.075 23.6231 128.874 23.9394C128.673 24.246 128.572 24.6006 128.572 25.0031H124.763C124.763 24.361 124.916 23.7525 125.223 23.1775C125.529 22.5929 125.965 22.0754 126.531 21.625C127.106 21.165 127.791 20.8056 128.586 20.5469C129.391 20.2881 130.292 20.1587 131.289 20.1587C132.468 20.1587 133.517 20.36 134.437 20.7625C135.366 21.1554 136.095 21.7496 136.622 22.545C137.159 23.3404 137.427 24.3419 137.427 25.5494V32.3344C137.427 33.1106 137.475 33.7767 137.571 34.3325C137.676 34.8787 137.829 35.3531 138.031 35.7556V36H134.164C133.982 35.6071 133.843 35.1087 133.747 34.505C133.651 33.8917 133.603 33.2879 133.603 32.6937ZM134.135 26.5269L134.164 28.7837H131.763C131.169 28.7837 130.647 28.846 130.196 28.9706C129.746 29.0856 129.377 29.2581 129.089 29.4881C128.802 29.7085 128.586 29.9769 128.443 30.2931C128.299 30.5998 128.227 30.9496 128.227 31.3425C128.227 31.7258 128.313 32.0708 128.486 32.3775C128.668 32.6842 128.926 32.9285 129.262 33.1106C129.607 33.2831 130.009 33.3694 130.469 33.3694C131.14 33.3694 131.725 33.2352 132.223 32.9669C132.721 32.689 133.11 32.3535 133.388 31.9606C133.665 31.5677 133.814 31.194 133.833 30.8394L134.926 32.4781C134.791 32.871 134.59 33.2879 134.322 33.7287C134.054 34.1696 133.709 34.5817 133.287 34.965C132.865 35.3483 132.357 35.6646 131.763 35.9137C131.169 36.1629 130.479 36.2875 129.693 36.2875C128.687 36.2875 127.786 36.0863 126.991 35.6837C126.195 35.2812 125.568 34.7302 125.108 34.0306C124.648 33.331 124.418 32.5356 124.418 31.6444C124.418 30.8202 124.571 30.0919 124.878 29.4594C125.184 28.8269 125.639 28.295 126.243 27.8637C126.847 27.4229 127.594 27.0923 128.486 26.8719C129.386 26.6419 130.417 26.5269 131.576 26.5269H134.135ZM149.401 31.745C149.401 31.4192 149.315 31.1269 149.143 30.8681C148.97 30.6094 148.644 30.3746 148.165 30.1637C147.695 29.9433 147.005 29.7373 146.095 29.5456C145.29 29.3731 144.547 29.1575 143.867 28.8987C143.186 28.64 142.602 28.3285 142.113 27.9644C141.624 27.5906 141.241 27.1546 140.963 26.6562C140.695 26.1483 140.561 25.5637 140.561 24.9025C140.561 24.2604 140.7 23.6567 140.978 23.0912C141.255 22.5162 141.658 22.0131 142.185 21.5819C142.712 21.141 143.354 20.796 144.111 20.5469C144.868 20.2881 145.721 20.1587 146.67 20.1587C147.993 20.1587 149.128 20.3744 150.077 20.8056C151.035 21.2369 151.768 21.831 152.276 22.5881C152.784 23.3356 153.038 24.179 153.038 25.1181H149.243C149.243 24.706 149.147 24.3323 148.956 23.9969C148.774 23.6615 148.491 23.3931 148.108 23.1919C147.724 22.981 147.24 22.8756 146.656 22.8756C146.129 22.8756 145.683 22.9619 145.319 23.1344C144.964 23.3069 144.696 23.5321 144.514 23.81C144.332 24.0879 144.241 24.3946 144.241 24.73C144.241 24.9792 144.289 25.2044 144.384 25.4056C144.49 25.5973 144.658 25.7746 144.888 25.9375C145.118 26.1004 145.429 26.249 145.822 26.3831C146.224 26.5173 146.718 26.6467 147.303 26.7712C148.462 27.0012 149.473 27.3079 150.336 27.6912C151.208 28.065 151.888 28.5633 152.377 29.1862C152.866 29.8092 153.11 30.6046 153.11 31.5725C153.11 32.2625 152.961 32.895 152.664 33.47C152.367 34.0354 151.936 34.529 151.371 34.9506C150.805 35.3723 150.13 35.7029 149.344 35.9425C148.558 36.1725 147.671 36.2875 146.684 36.2875C145.256 36.2875 144.049 36.0335 143.062 35.5256C142.075 35.0081 141.327 34.3565 140.819 33.5706C140.311 32.7752 140.058 31.951 140.058 31.0981H143.694C143.723 31.7019 143.886 32.1858 144.183 32.55C144.48 32.9142 144.854 33.1777 145.304 33.3406C145.764 33.494 146.248 33.5706 146.756 33.5706C147.331 33.5706 147.815 33.494 148.208 33.3406C148.601 33.1777 148.898 32.9621 149.099 32.6937C149.301 32.4158 149.401 32.0996 149.401 31.745Z" fill="black"/>
<path d="M33.1231 8.0826C32.6008 8.29537 31.9045 8.92402 31.624 9.4366L31.3338 9.95886L31.3435 13.0054C31.3435 14.6785 31.4015 17.8121 31.4692 19.9689C31.682 26.9517 31.711 30.2013 31.5756 30.3657C31.1307 30.8976 29.3705 29.8628 28.8289 28.7409C28.3357 27.7254 28.2293 26.4487 27.9972 18.7116C27.9391 16.7676 27.8521 14.7656 27.8037 14.2627C27.591 12.1156 27.1364 11.545 25.6083 11.516C24.7862 11.5063 24.4961 11.6707 24.1576 12.338C23.9642 12.7056 23.9255 13.0054 23.8384 14.6012C23.7901 15.607 23.7417 17.2608 23.7417 18.2763C23.7417 20.0172 23.645 20.965 23.3549 22.2417C23.1421 23.1991 22.6585 23.644 21.6817 23.7794C20.995 23.8858 20.289 23.6924 19.525 23.2088C17.523 21.9322 16.904 21.5646 15.7337 20.9844C14.4474 20.346 13.6253 20.0075 11.9909 19.4756C10.6465 19.0404 9.76642 18.876 8.60584 18.8663C5.82046 18.847 3.87649 19.8528 3.13178 21.7097C2.92868 22.2223 2.96737 23.4119 3.19948 23.9342C3.59601 24.8046 4.49546 25.4526 5.69473 25.7331C10.7336 26.9033 11.8845 27.3482 18.2483 30.5785C20.7242 31.8454 21.614 32.4257 24.0222 34.3697C26.8753 36.6522 29.1964 38.6832 31.0437 40.4821C33.8097 43.1901 34.5641 43.8574 34.8639 43.8574C34.98 43.8574 35.2895 43.5286 35.744 42.9096C37.2044 40.9366 37.6396 40.395 38.5488 39.3602C40.8602 36.7295 43.3265 34.6308 47.4852 31.7584C51.5279 28.9537 54.0522 27.2998 54.7292 26.9807C57.3598 25.7717 58.4237 25.3849 62.1182 24.263C64.7392 23.4699 65.2711 23.2088 65.7643 22.4641C66.1609 21.8645 66.0835 21.3712 65.3291 19.8141C64.7392 18.6148 63.9074 17.8121 62.6211 17.1835C62.1762 16.9707 60.9383 16.6805 60.474 16.6805C59.4295 16.6805 57.3405 17.3189 54.7485 18.4311C52.6498 19.3305 51.3732 20.0752 48.5878 22.0192C47.2338 22.9573 46.6728 23.2475 46.1989 23.2572C45.1254 23.2668 44.99 22.5511 44.8739 16.5838C44.8449 14.8526 44.7772 13.1601 44.7288 12.8313C44.6225 12.0479 44.2936 11.3999 43.8391 11.0324C43.5296 10.7906 43.3942 10.7519 42.9106 10.7519C42.0885 10.7616 41.3438 11.1775 41.015 11.8255C40.7732 12.2994 40.3863 13.9048 40.2993 14.7946C40.2509 15.2685 40.2509 16.255 40.2993 16.9707C40.338 17.6864 40.425 20.3751 40.4831 22.9283L40.5991 27.59L40.3863 28.2476C39.8738 29.8531 38.955 30.8009 37.9298 30.8009C37.4559 30.8009 37.2528 30.6365 37.1464 30.1723C37.1077 30.0079 37.04 28.5571 36.9917 26.9323C36.9433 25.3075 36.8563 22.6962 36.8079 21.1294C36.7499 19.5626 36.6628 16.5548 36.6048 14.4561C36.5468 12.3574 36.4597 10.3747 36.4114 10.0653C36.2953 9.3012 35.8988 8.68223 35.3088 8.31471C34.9026 8.06325 34.7189 8.02457 34.0999 8.00522C33.6937 7.98588 33.2585 8.02457 33.1231 8.0826Z" fill="#FF4004"/>
</svg>
